<svg width="79" height="55" viewBox="0 0 79 55" fill="none" xmlns="http://www.w3.org/2000/svg">
<path d="M26.7979 25.9528L31.5638 21.2103C33.8801 18.8201 38.8557 13.6555 41.5723 11.7254C44.9085 9.35412 51.1042 9.82837 51.3807 14.3385C51.5236 16.6718 50.5943 19.3228 48.7213 20.7361C45.5614 23.1168 38.4792 25.9528 26.7979 25.9528Z" fill="black"/>
<path d="M61.5894 1.76627C61.5894 1.76627 56.6137 -0.903743 51.781 1.51492C51.4712 1.67142 51.2043 1.89432 50.9756 2.15041C49.8842 3.37397 46.4241 7.13949 44.4367 7.92674C44.4367 7.92674 56.3516 7.45249 54.4452 15.5147C52.5388 23.5769 44.4367 25.4834 44.4367 25.4834C44.4367 25.4834 36.3346 29.0782 23.9431 29.4101L17.7473 34.4846L25.3729 33.5361L12.5 43.5H22.7849L31.5638 34.4893L40.1426 32.1181V34.4893L47.2915 39.2318L42.5065 41.0197L55.3936 41.603L49.1979 38.7576L44.1936 34.2522L45.9284 30.4393C45.9284 30.4393 55.1553 30.4582 58.4915 13.8596C58.4915 13.8596 58.4915 3.90038 68.5 5.32312C68.5 5.32312 68.0234 2.47764 61.5894 1.76627Z" fill="black"/>
<path d="M46.1001 18.1277C47.6794 18.1277 48.9596 16.8538 48.9596 15.2823C48.9596 13.7107 47.6794 12.4368 46.1001 12.4368C44.5208 12.4368 43.2405 13.7107 43.2405 15.2823C43.2405 16.8538 44.5208 18.1277 46.1001 18.1277Z" fill="white"/>
<g clip-path="url(#clip0_142_1239)">
<path d="M43.9087 28.5983L68.3036 37.4036L77.8545 33.9473L51.4522 25.718L43.9087 28.5983Z" stroke="black" stroke-miterlimit="10"/>
<path d="M1.09082 45.4767L25.4857 54.282L35.0367 50.8257L8.63434 42.5964L1.09082 45.4767Z" stroke="black" stroke-miterlimit="10"/>
<path d="M15.7588 39.7162L40.1537 48.5215L49.7046 45.0652L23.3023 36.8359L15.7588 39.7162Z" stroke="black" stroke-miterlimit="10"/>
<path d="M30.0078 34.3671L54.4027 43.1724L63.9537 39.7161L37.5513 31.4868L30.0078 34.3671Z" stroke="black" stroke-miterlimit="10"/>
</g>
<defs>
<clipPath id="clip0_142_1239">
<rect width="78" height="29" fill="white" transform="translate(0.5 25.5)"/>
</clipPath>
</defs>
</svg>
