<svg width="151" height="58" viewBox="0 0 151 58" fill="none" xmlns="http://www.w3.org/2000/svg">
<path d="M37.3383 17.9075C38.2196 15.0909 41.4658 14.9559 42.7697 18.7354C43.1563 19.8692 43.7408 23.2077 38.1117 37.8217L33.1479 35.1761L37.3383 17.9075Z" fill="#061F28"/>
<path d="M36.5108 34.798C32.5183 32.3413 31.9787 27.509 32.5183 25.6823C36.9425 10.6634 36.0882 7.37887 35.6116 6.28103C34.011 2.61855 30.7828 3.01449 30.1353 5.89408C29.1552 11.2843 22.6178 39.3694 19.2188 53.0924L36.5108 34.798Z" fill="#0A3447"/>
<path d="M30.8639 28.8138H30.9089C26.4487 27.383 24.7492 24.1525 24.8391 22.2538C25.5585 6.61397 23.9578 3.62639 23.2295 2.67252C20.8016 -0.504028 17.7622 0.647809 17.8161 3.60839C18.1399 9.07062 18.4816 37.9115 18.4456 52.0485C18.4456 54.9011 20.7476 57.2228 23.5982 57.2228C39.0468 57.5018 44.3433 35.8328 30.8639 28.8228V28.8138Z" fill="#0E4A6B"/>
<path d="M24.614 30.7673H24.6589C19.983 30.4614 17.5461 27.7438 17.1684 25.872C14.0481 10.5292 11.764 8.01855 10.8289 7.28065C7.69955 4.797 5.03784 6.65974 5.81118 9.51234C7.42978 14.6236 13.5985 38.5242 16.8447 51.6804C17.663 55.0099 20.6933 57.3136 24.1194 57.2236C24.7039 57.2056 25.2794 57.1246 25.8459 56.9716C39.9727 52.9132 39.1095 34.2048 24.632 30.7763L24.614 30.7673Z" fill="#1568A0"/>
<path d="M0.245206 30.1098C-0.761926 27.6441 1.49513 25.0885 4.06691 25.7904C4.11187 25.7994 4.16583 25.8174 4.21079 25.8354C5.51466 26.2133 7.57389 26.7712 10.928 36.4809C10.928 36.4809 11.4855 38.3526 14.2911 38.5326C33.3007 40.1703 30.0185 56.1071 20.4508 56.2781C18.5534 56.3141 16.4223 55.8641 14.1472 54.4063C11.8722 52.9485 9.90288 50.7798 8.59001 48.3232C6.00924 43.5089 2.32241 35.203 0.245206 30.1098Z" fill="#258AD8"/>
<path d="M67.2162 37.812C66.0802 37.812 65.0122 37.588 64.0122 37.14C63.0122 36.684 62.1322 36.06 61.3722 35.268C60.6202 34.468 60.0282 33.54 59.5962 32.484C59.1722 31.428 58.9602 30.3 58.9602 29.1C58.9602 27.9 59.1722 26.772 59.5962 25.716C60.0282 24.66 60.6202 23.736 61.3722 22.944C62.1322 22.144 63.0122 21.52 64.0122 21.072C65.0122 20.616 66.0802 20.388 67.2162 20.388C68.5762 20.388 69.8282 20.704 70.9722 21.336C72.1162 21.968 73.0642 22.808 73.8162 23.856L71.5962 25.044C71.0762 24.388 70.4322 23.864 69.6642 23.472C68.8962 23.08 68.0802 22.884 67.2162 22.884C66.4162 22.884 65.6682 23.048 64.9722 23.376C64.2762 23.704 63.6642 24.152 63.1362 24.72C62.6082 25.288 62.1962 25.948 61.9002 26.7C61.6042 27.452 61.4562 28.252 61.4562 29.1C61.4562 29.956 61.6042 30.76 61.9002 31.512C62.1962 32.256 62.6082 32.916 63.1362 33.492C63.6722 34.06 64.2882 34.508 64.9842 34.836C65.6802 35.156 66.4242 35.316 67.2162 35.316C68.0962 35.316 68.9162 35.12 69.6762 34.728C70.4442 34.328 71.0842 33.8 71.5962 33.144L73.8162 34.356C73.0642 35.404 72.1162 36.244 70.9722 36.876C69.8282 37.5 68.5762 37.812 67.2162 37.812ZM76.0809 37.5V25.5H78.5769V26.772C78.9929 26.276 79.5049 25.884 80.1129 25.596C80.7209 25.308 81.3769 25.164 82.0809 25.164C82.5289 25.164 82.9729 25.224 83.4129 25.344L82.4169 27.864C82.1049 27.744 81.7929 27.684 81.4809 27.684C80.9529 27.684 80.4689 27.816 80.0289 28.08C79.5889 28.336 79.2369 28.684 78.9729 29.124C78.7089 29.564 78.5769 30.052 78.5769 30.588V37.5H76.0809ZM89.5171 37.812C88.4131 37.812 87.4051 37.528 86.4931 36.96C85.5891 36.392 84.8651 35.632 84.3211 34.68C83.7851 33.72 83.5171 32.66 83.5171 31.5C83.5171 30.62 83.6731 29.8 83.9851 29.04C84.2971 28.272 84.7251 27.6 85.2691 27.024C85.8211 26.44 86.4611 25.984 87.1891 25.656C87.9171 25.328 88.6931 25.164 89.5171 25.164C90.6211 25.164 91.6251 25.448 92.5291 26.016C93.4411 26.584 94.1651 27.348 94.7011 28.308C95.2451 29.268 95.5171 30.332 95.5171 31.5C95.5171 32.372 95.3611 33.188 95.0491 33.948C94.7371 34.708 94.3051 35.38 93.7531 35.964C93.2091 36.54 92.5731 36.992 91.8451 37.32C91.1251 37.648 90.3491 37.812 89.5171 37.812ZM89.5171 35.316C90.1811 35.316 90.7771 35.14 91.3051 34.788C91.8331 34.436 92.2491 33.972 92.5531 33.396C92.8651 32.812 93.0211 32.18 93.0211 31.5C93.0211 30.804 92.8611 30.164 92.5411 29.58C92.2291 28.996 91.8091 28.532 91.2811 28.188C90.7531 27.836 90.1651 27.66 89.5171 27.66C88.8611 27.66 88.2651 27.836 87.7291 28.188C87.2011 28.54 86.7811 29.008 86.4691 29.592C86.1651 30.176 86.0131 30.812 86.0131 31.5C86.0131 32.212 86.1731 32.856 86.4931 33.432C86.8131 34.008 87.2371 34.468 87.7651 34.812C88.3011 35.148 88.8851 35.316 89.5171 35.316ZM102.677 37.5H100.193L96.1734 25.5H98.6214L101.453 33.924L104.261 25.5H106.781L109.589 33.924L112.409 25.5H114.857L110.849 37.5H108.341L105.509 29.016L102.677 37.5ZM127.521 29.976V37.5H125.025V30.588C125.025 30.052 124.893 29.564 124.629 29.124C124.373 28.684 124.025 28.336 123.585 28.08C123.153 27.816 122.665 27.684 122.121 27.684C121.593 27.684 121.109 27.816 120.669 28.08C120.229 28.336 119.877 28.684 119.613 29.124C119.349 29.564 119.217 30.052 119.217 30.588V37.5H116.721V25.5H119.217V26.772C119.633 26.276 120.145 25.884 120.753 25.596C121.361 25.308 122.017 25.164 122.721 25.164C123.609 25.164 124.417 25.38 125.145 25.812C125.873 26.244 126.449 26.824 126.873 27.552C127.305 28.28 127.521 29.088 127.521 29.976ZM134.962 37.812C133.858 37.812 132.85 37.528 131.938 36.96C131.034 36.392 130.31 35.632 129.766 34.68C129.23 33.72 128.962 32.66 128.962 31.5C128.962 30.62 129.118 29.8 129.43 29.04C129.742 28.272 130.17 27.6 130.714 27.024C131.266 26.44 131.906 25.984 132.634 25.656C133.362 25.328 134.138 25.164 134.962 25.164C135.882 25.164 136.726 25.356 137.494 25.74C138.262 26.116 138.918 26.64 139.462 27.312C140.006 27.976 140.406 28.744 140.662 29.616C140.918 30.48 140.994 31.4 140.89 32.376H131.638C131.742 32.928 131.942 33.428 132.238 33.876C132.542 34.316 132.926 34.664 133.39 34.92C133.862 35.176 134.386 35.308 134.962 35.316C135.57 35.316 136.122 35.164 136.618 34.86C137.122 34.556 137.534 34.136 137.854 33.6L140.386 34.188C139.906 35.252 139.182 36.124 138.214 36.804C137.246 37.476 136.162 37.812 134.962 37.812ZM131.554 30.468H138.37C138.29 29.892 138.086 29.372 137.758 28.908C137.438 28.436 137.034 28.064 136.546 27.792C136.066 27.512 135.538 27.372 134.962 27.372C134.394 27.372 133.866 27.508 133.378 27.78C132.898 28.052 132.498 28.424 132.178 28.896C131.866 29.36 131.658 29.884 131.554 30.468ZM142.878 37.5V25.5H145.374V26.772C145.79 26.276 146.302 25.884 146.91 25.596C147.518 25.308 148.174 25.164 148.878 25.164C149.326 25.164 149.77 25.224 150.21 25.344L149.214 27.864C148.902 27.744 148.59 27.684 148.278 27.684C147.75 27.684 147.266 27.816 146.826 28.08C146.386 28.336 146.034 28.684 145.77 29.124C145.506 29.564 145.374 30.052 145.374 30.588V37.5H142.878Z" fill="url(#paint0_linear_390_1947)"/>
<defs>
<linearGradient id="paint0_linear_390_1947" x1="58.0002" y1="29" x2="151" y2="29" gradientUnits="userSpaceOnUse">
<stop stop-color="#144972"/>
<stop offset="1" stop-color="#258AD8"/>
</linearGradient>
</defs>
</svg>
