<svg width="147" height="61" viewBox="0 0 147 61" fill="none" xmlns="http://www.w3.org/2000/svg">
<g filter="url(#filter0_d_935_904)">
<path d="M4.225 40.415C4.225 37.755 4.77333 35.3867 5.87 33.31C7.15333 30.86 9.07833 29.1567 11.645 28.2C13.0683 27.6867 14.55 27.43 16.09 27.43C17.63 27.43 19.1117 27.5467 20.535 27.78C21.9583 28.0133 22.8917 28.2233 23.335 28.41C23.475 29.2733 23.545 30.1833 23.545 31.14C23.545 32.0733 23.5217 33.1233 23.475 34.29L21.48 34.57C20.9667 31.8633 20.5117 30.37 20.115 30.09C19.905 29.9267 19.3567 29.7517 18.47 29.565C17.6067 29.3783 16.7433 29.285 15.88 29.285C13.3133 29.285 11.3767 30.23 10.07 32.12C8.76333 34.01 8.11 36.495 8.11 39.575C8.11 43.215 8.93833 45.9217 10.595 47.695C12.2517 49.4683 14.305 50.355 16.755 50.355C17.6417 50.355 18.47 50.25 19.24 50.04C20.0333 49.83 20.5467 49.6317 20.78 49.445C21.0367 49.2583 21.4217 47.7767 21.935 45L23.86 45.07C23.86 46.8433 23.7317 48.7333 23.475 50.74C22.7517 51.1367 21.655 51.4983 20.185 51.825C18.7383 52.1517 17.2567 52.315 15.74 52.315C11.9367 52.315 9.06667 51.195 7.13 48.955C5.19333 46.715 4.225 43.8683 4.225 40.415ZM26.1041 52L25.8941 50.635C27.1308 50.425 27.8891 50.1917 28.1691 49.935C28.4491 49.6783 28.5891 49.2467 28.5891 48.64V38.56C28.5891 37.9533 28.4258 37.5217 28.0991 37.265C27.7958 36.985 26.9908 36.7517 25.6841 36.565L25.8941 35.445L30.6541 34.99C30.8174 34.99 30.9924 35.2233 31.1791 35.69C31.3658 36.1567 31.4591 36.6467 31.4591 37.16C31.4591 37.65 31.4124 38.2217 31.3191 38.875L31.5991 38.98L32.0541 37.965C32.4741 37.0317 33.1041 36.2967 33.9441 35.76C34.8074 35.2 35.6708 34.92 36.5341 34.92C37.4208 34.92 38.2374 35.1067 38.9841 35.48C38.9841 37.3933 38.8091 39.3067 38.4591 41.22L36.7441 41.395C36.5574 39.435 36.3708 38.3267 36.1841 38.07C35.9974 37.79 35.6824 37.65 35.2391 37.65C34.8191 37.65 34.3174 37.8483 33.7341 38.245C33.1508 38.6183 32.6724 39.0267 32.2991 39.47C31.9258 39.89 31.7391 40.59 31.7391 41.57V49.48C31.7391 49.7833 31.7974 49.9817 31.9141 50.075C32.0541 50.145 32.2291 50.1917 32.4391 50.215L35.6241 50.635L35.4841 52H26.1041ZM48.7715 52.315C46.2515 52.315 44.3149 51.5683 42.9615 50.075C41.6082 48.5817 40.9315 46.4933 40.9315 43.81C40.9315 41.1267 41.6432 38.98 43.0665 37.37C44.5132 35.7367 46.4965 34.92 49.0165 34.92C51.5599 34.92 53.5082 35.6783 54.8615 37.195C56.2149 38.6883 56.8915 40.7767 56.8915 43.46C56.8915 46.1433 56.1682 48.29 54.7215 49.9C53.2982 51.51 51.3149 52.315 48.7715 52.315ZM44.3265 43.355C44.3265 45.4317 44.7465 47.135 45.5865 48.465C46.4265 49.795 47.5699 50.46 49.0165 50.46C50.4632 50.46 51.4899 50.11 52.0965 49.41C52.5165 48.9433 52.8549 48.2083 53.1115 47.205C53.3682 46.1783 53.4965 45.07 53.4965 43.88C53.4965 41.8033 53.0765 40.1 52.2365 38.77C51.3965 37.44 50.2532 36.775 48.8065 36.775C47.3599 36.775 46.3332 37.125 45.7265 37.825C45.3065 38.2917 44.9682 39.0383 44.7115 40.065C44.4549 41.0683 44.3265 42.165 44.3265 43.355ZM65.2401 52.315L60.1651 38.07C60.0018 37.6267 59.8385 37.3467 59.6751 37.23C59.5118 37.1133 59.0451 36.9733 58.2751 36.81L58.4851 35.445H64.9601L65.1001 36.81L63.5601 37.3C63.3968 37.3233 63.3151 37.405 63.3151 37.545C63.3151 37.5683 63.3618 37.72 63.4551 38L66.6751 48.08C66.7685 48.3133 66.8151 48.5933 66.8151 48.92V49.06H67.0951C67.0951 48.8033 67.1885 48.4533 67.3751 48.01L70.5601 40.065L69.8951 38.07C69.7551 37.65 69.6035 37.3817 69.4401 37.265C69.3001 37.125 68.9385 36.9733 68.3551 36.81L68.5651 35.445H74.3051L74.4451 36.81L72.9051 37.3C72.7418 37.3233 72.6601 37.405 72.6601 37.545C72.6601 37.5683 72.7068 37.72 72.8001 38L75.9851 48.08C76.0785 48.36 76.1251 48.64 76.1251 48.92V49.06H76.4051C76.4051 48.92 76.4985 48.57 76.6851 48.01L79.8701 38.875C80.0101 38.5017 80.0801 38.2567 80.0801 38.14C80.0801 38 80.0685 37.9067 80.0451 37.86C80.0451 37.79 80.0218 37.7317 79.9751 37.685C79.9285 37.615 79.8818 37.5683 79.8351 37.545C79.8118 37.4983 79.7535 37.4517 79.6601 37.405C79.5901 37.3583 79.5201 37.3233 79.4501 37.3C79.4035 37.2533 79.3218 37.2067 79.2051 37.16C79.0885 37.1133 78.9835 37.0783 78.8901 37.055C78.8201 37.0317 78.7151 36.9967 78.5751 36.95C78.4351 36.88 78.3185 36.8333 78.2251 36.81L78.4351 35.445H84.1751L84.3151 36.81C83.5685 36.9967 83.1135 37.125 82.9501 37.195C82.7868 37.2417 82.6935 37.3117 82.6701 37.405L76.8601 52.315H74.5851L71.7151 43.495C71.5985 43.145 71.5401 42.83 71.5401 42.55H71.2601C71.2601 42.8067 71.1901 43.11 71.0501 43.46L67.5151 52.315H65.2401ZM86.0268 52L85.8168 50.635C86.9602 50.4017 87.6485 50.1683 87.8818 49.935C88.1385 49.6783 88.2668 49.2467 88.2668 48.64V38.56C88.2668 37.9533 88.1152 37.5333 87.8118 37.3C87.5318 37.0433 86.7968 36.7983 85.6068 36.565L85.8168 35.445L90.3318 34.99C90.4952 34.99 90.6585 35.3167 90.8218 35.97C91.0085 36.6233 91.1018 37.195 91.1018 37.685V37.895L91.3818 38L91.8018 37.51C93.2718 35.7833 95.0685 34.92 97.1918 34.92C98.6852 34.92 99.8635 35.375 100.727 36.285C101.59 37.1717 102.022 38.42 102.022 40.03V49.48C102.022 49.76 102.08 49.9467 102.197 50.04C102.337 50.11 102.512 50.1683 102.722 50.215L104.437 50.635L104.297 52H96.8068L96.5968 50.635C97.6468 50.425 98.2885 50.1917 98.5218 49.935C98.7552 49.6783 98.8718 49.2467 98.8718 48.64V41.08C98.8718 39.9833 98.6735 39.1083 98.2768 38.455C97.8802 37.7783 97.0985 37.44 95.9318 37.44C94.7885 37.44 93.5402 37.895 92.1868 38.805C91.9768 38.945 91.8252 39.05 91.7318 39.12C91.5218 39.3533 91.4168 39.785 91.4168 40.415V49.445C91.4168 49.7017 91.4518 49.8767 91.5218 49.97C91.6152 50.0633 91.8135 50.145 92.1168 50.215L93.6568 50.635L93.5168 52H86.0268ZM113.841 52.315C111.485 52.315 109.653 51.51 108.346 49.9C107.063 48.29 106.421 46.26 106.421 43.81C106.421 41.3367 107.168 39.2367 108.661 37.51C110.155 35.7833 112.126 34.92 114.576 34.92C118.543 34.92 120.62 37.3583 120.806 42.235L119.896 42.9L109.746 43.46C109.746 47.7767 111.59 49.935 115.276 49.935C116.886 49.935 118.461 49.5383 120.001 48.745L120.736 49.9C119.966 50.53 118.963 51.09 117.726 51.58C116.49 52.07 115.195 52.315 113.841 52.315ZM109.851 41.85L117.096 41.22C117.33 41.1967 117.446 40.975 117.446 40.555C117.446 39.5283 117.166 38.6417 116.606 37.895C116.07 37.1483 115.148 36.775 113.841 36.775C112.535 36.775 111.578 37.2183 110.971 38.105C110.388 38.9683 110.015 40.2167 109.851 41.85ZM123.345 52L123.135 50.635C124.372 50.425 125.13 50.1917 125.41 49.935C125.69 49.6783 125.83 49.2467 125.83 48.64V38.56C125.83 37.9533 125.667 37.5217 125.34 37.265C125.037 36.985 124.232 36.7517 122.925 36.565L123.135 35.445L127.895 34.99C128.059 34.99 128.234 35.2233 128.42 35.69C128.607 36.1567 128.7 36.6467 128.7 37.16C128.7 37.65 128.654 38.2217 128.56 38.875L128.84 38.98L129.295 37.965C129.715 37.0317 130.345 36.2967 131.185 35.76C132.049 35.2 132.912 34.92 133.775 34.92C134.662 34.92 135.479 35.1067 136.225 35.48C136.225 37.3933 136.05 39.3067 135.7 41.22L133.985 41.395C133.799 39.435 133.612 38.3267 133.425 38.07C133.239 37.79 132.924 37.65 132.48 37.65C132.06 37.65 131.559 37.8483 130.975 38.245C130.392 38.6183 129.914 39.0267 129.54 39.47C129.167 39.89 128.98 40.59 128.98 41.57V49.48C128.98 49.7833 129.039 49.9817 129.155 50.075C129.295 50.145 129.47 50.1917 129.68 50.215L132.865 50.635L132.725 52H123.345Z" fill="black"/>
</g>
<g filter="url(#filter1_d_935_904)">
<path d="M64.5733 0.963867L77.4741 21.9639H51.6725L64.5733 0.963867Z" fill="#FF6969"/>
</g>
<g filter="url(#filter2_d_935_904)">
<path d="M81.0265 1.01699L91.5412 22.8177L65.5 22L81.0265 1.01699Z" fill="#FF6969"/>
</g>
<g filter="url(#filter3_d_935_904)">
<path d="M50.0876 0.798871L63.3495 21.0461L37.4233 23.6237L50.0876 0.798871Z" fill="#FF6969"/>
</g>
<defs>
<filter id="filter0_d_935_904" x="0.224609" y="27.4302" width="140.001" height="32.8848" filterUnits="userSpaceOnUse" color-interpolation-filters="sRGB">
<feFlood flood-opacity="0" result="BackgroundImageFix"/>
<feColorMatrix in="SourceAlpha" type="matrix" values="0 0 0 0 0 0 0 0 0 0 0 0 0 0 0 0 0 0 127 0" result="hardAlpha"/>
<feOffset dy="4"/>
<feGaussianBlur stdDeviation="2"/>
<feComposite in2="hardAlpha" operator="out"/>
<feColorMatrix type="matrix" values="0 0 0 0 0 0 0 0 0 0 0 0 0 0 0 0 0 0 0.25 0"/>
<feBlend mode="normal" in2="BackgroundImageFix" result="effect1_dropShadow_935_904"/>
<feBlend mode="normal" in="SourceGraphic" in2="effect1_dropShadow_935_904" result="shape"/>
</filter>
<filter id="filter1_d_935_904" x="47.6729" y="0.963867" width="33.8008" height="29" filterUnits="userSpaceOnUse" color-interpolation-filters="sRGB">
<feFlood flood-opacity="0" result="BackgroundImageFix"/>
<feColorMatrix in="SourceAlpha" type="matrix" values="0 0 0 0 0 0 0 0 0 0 0 0 0 0 0 0 0 0 127 0" result="hardAlpha"/>
<feOffset dy="4"/>
<feGaussianBlur stdDeviation="2"/>
<feComposite in2="hardAlpha" operator="out"/>
<feColorMatrix type="matrix" values="0 0 0 0 0 0 0 0 0 0 0 0 0 0 0 0 0 0 0.25 0"/>
<feBlend mode="normal" in2="BackgroundImageFix" result="effect1_dropShadow_935_904"/>
<feBlend mode="normal" in="SourceGraphic" in2="effect1_dropShadow_935_904" result="shape"/>
</filter>
<filter id="filter2_d_935_904" x="61.5" y="1.01709" width="34.041" height="29.8008" filterUnits="userSpaceOnUse" color-interpolation-filters="sRGB">
<feFlood flood-opacity="0" result="BackgroundImageFix"/>
<feColorMatrix in="SourceAlpha" type="matrix" values="0 0 0 0 0 0 0 0 0 0 0 0 0 0 0 0 0 0 127 0" result="hardAlpha"/>
<feOffset dy="4"/>
<feGaussianBlur stdDeviation="2"/>
<feComposite in2="hardAlpha" operator="out"/>
<feColorMatrix type="matrix" values="0 0 0 0 0 0 0 0 0 0 0 0 0 0 0 0 0 0 0.25 0"/>
<feBlend mode="normal" in2="BackgroundImageFix" result="effect1_dropShadow_935_904"/>
<feBlend mode="normal" in="SourceGraphic" in2="effect1_dropShadow_935_904" result="shape"/>
</filter>
<filter id="filter3_d_935_904" x="33.4229" y="0.798828" width="33.9268" height="30.8247" filterUnits="userSpaceOnUse" color-interpolation-filters="sRGB">
<feFlood flood-opacity="0" result="BackgroundImageFix"/>
<feColorMatrix in="SourceAlpha" type="matrix" values="0 0 0 0 0 0 0 0 0 0 0 0 0 0 0 0 0 0 127 0" result="hardAlpha"/>
<feOffset dy="4"/>
<feGaussianBlur stdDeviation="2"/>
<feComposite in2="hardAlpha" operator="out"/>
<feColorMatrix type="matrix" values="0 0 0 0 0 0 0 0 0 0 0 0 0 0 0 0 0 0 0.25 0"/>
<feBlend mode="normal" in2="BackgroundImageFix" result="effect1_dropShadow_935_904"/>
<feBlend mode="normal" in="SourceGraphic" in2="effect1_dropShadow_935_904" result="shape"/>
</filter>
</defs>
</svg>
